# xmcd
#
# Track frame offsets:
#	150
#	21622
#	41667
#	62110
#	82062
#	100222
#	123867
#	146612
#	173430
#	188522
#	204605
#	229392
#
# Disc length: 3232 seconds
#
# Revision: 2
# Processed by: cddbd v1.4b42PL1 Copyright (c) Steve Scherf et al.
# Submitted via: audiograbber 1.80.04
#
DISCID=a60c9e0c
DTITLE=Heli Deinboek - Der Puls
DYEAR=1900
DGENRE=
TTITLE0=Mehr Rhythmus braucht das Land
TTITLE1=Der Puls
TTITLE2=Ihr seid´s okay
TTITLE3=You call it love
TTITLE4=Komm, grosse deutsche Schwester
TTITLE5=Die Kraft
TTITLE6=Spray " Ich liebe dich" 
TTITLE7=Mitternacht
TTITLE8=Hänsel und Gretel
TTITLE9=A Gmahde Wiesen
TTITLE10=Böse Zeit
TTITLE11=Waun  de Neurosen blühn
EXTD=
EXTT0=
EXTT1=
EXTT2=
EXTT3=
EXTT4=
EXTT5=
EXTT6=
EXTT7=
EXTT8=
EXTT9=
EXTT10=
EXTT11=
PLAYORDER=
